<svg viewBox="0 0 30 30" xmlns="http://www.w3.org/2000/svg"><path fill="#675B29" d="M25 17.238v7.481l-6-1.5v-3.168l-2-2.813v6.008l-5 1.429V8.781l.011-.003a8.94 8.94 0 01.314-2.14l-.788.197c-.34.085-.697.079-1.035-.017L4.339 5.056A1.05 1.05 0 003 6.066v17.179a2 2 0 001.45 1.923l6.194 1.77c.233.066.479.066.712 0l6.147-1.756a2.007 2.007 0 011.035-.017l7.158 1.79A1.05 1.05 0 0027 25.936V15.643l-2 1.595zm-15 7.436l-5-1.428V7.326l5 1.428v15.92z"/><path fill="#675B29" d="M21 2a7 7 0 00-7 7c0 4.604 4.551 6.745 5.121 7.258.582.524 1.063 1.575 1.258 2.241a.66.66 0 00.621.494.66.66 0 00.621-.494c.194-.665.675-1.717 1.258-2.241C23.449 15.745 28 13.604 28 9a7 7 0 00-7-7zm0 9a2 2 0 11-.001-3.999A2 2 0 0121 11z"/></svg>